<svg xmlns="http://www.w3.org/2000/svg" width="23.062" height="35" viewBox="0 0 23.062 35">
<defs>
    <style>
      .cls-1 {
        fill: #3f92d3;
        fill-rule: evenodd;
      }
    </style>
  </defs>
  <path id="location" class="cls-1" d="M523.5,1374a11.608,11.608,0,0,0-11.525,11.67,11.8,11.8,0,0,0,1.383,5.54l9.512,17.41a0.712,0.712,0,0,0,1.26,0l9.515-17.42a11.766,11.766,0,0,0,1.38-5.53A11.608,11.608,0,0,0,523.5,1374Zm0,17.5a5.835,5.835,0,1,1,5.762-5.83A5.806,5.806,0,0,1,523.5,1391.5Z" transform="translate(-511.969 -1374)"/>
</svg>
