<svg width="61" height="40" viewBox="0 0 61 40" fill="none" xmlns="http://www.w3.org/2000/svg">
<path d="M60.4316 26.833C60.4316 28.6221 60.0589 30.2993 59.3135 31.8647C58.6426 33.4302 57.7108 34.8092 56.5181 36.002C55.3999 37.1201 54.0581 38.0146 52.4927 38.6855C50.9272 39.3564 49.25 39.6919 47.4609 39.6919C45.6719 39.6919 43.9946 39.3564 42.4292 38.6855C40.8638 38.0146 39.4847 37.1201 38.292 36.002C37.1738 34.8092 36.2793 33.4302 35.6084 31.8647C34.9375 30.2993 34.6021 28.6221 34.6021 26.833C34.6021 23.8512 35.0866 21.0931 36.0557 18.5586C37.0247 15.9495 38.3293 13.5269 39.9692 11.2905C41.6838 9.0542 43.6219 7.00423 45.7837 5.14062C48.02 3.27702 50.3309 1.59977 52.7163 0.108887L56.8535 3.68701C55.4372 4.95426 54.1326 6.55697 52.9399 8.49512C51.7472 10.4333 50.9645 12.3714 50.5918 14.3096C53.4245 14.9805 55.7726 16.5086 57.6362 18.894C59.4998 21.2049 60.4316 23.8512 60.4316 26.833ZM26.104 26.833C26.104 28.6221 25.7313 30.2993 24.9858 31.8647C24.3149 33.4302 23.3831 34.8092 22.1904 36.002C21.0723 37.1201 19.6932 38.0146 18.0532 38.6855C16.4878 39.3564 14.8105 39.6919 13.0215 39.6919C11.2324 39.6919 9.55518 39.3564 7.98975 38.6855C6.49886 38.0146 5.15706 37.1201 3.96436 36.002C2.84619 34.8092 1.95166 33.4302 1.28076 31.8647C0.609863 30.2993 0.274414 28.6221 0.274414 26.833C0.274414 23.8512 0.758952 21.0931 1.72803 18.5586C2.6971 15.9495 4.00163 13.5269 5.6416 11.2905C7.35612 9.0542 9.29427 7.00423 11.4561 5.14062C13.6924 3.27702 16.0033 1.59977 18.3887 0.108887L22.4141 3.68701C21.0723 4.95426 19.805 6.55697 18.6123 8.49512C17.4196 10.4333 16.6369 12.3714 16.2642 14.3096C19.0968 14.9805 21.445 16.5086 23.3086 18.894C25.1722 21.2049 26.104 23.8512 26.104 26.833Z" fill="#252A4C"/>
</svg>
