<svg width="32" height="22" viewBox="0 0 32 22" fill="none" xmlns="http://www.w3.org/2000/svg">
<path d="M30.5814 3.48895C30.1814 2.18895 29.1814 1.08896 27.8814 0.788956C25.4814 0.188956 15.9814 0.188965 15.9814 0.188965C15.9814 0.188965 6.48143 0.188956 4.08143 0.788956C2.78143 1.18896 1.78143 2.18895 1.38143 3.48895C0.781433 5.88895 0.781433 10.889 0.781433 10.889C0.781433 10.889 0.781433 15.889 1.38143 18.289C1.78143 19.589 2.78143 20.689 4.08143 20.989C6.48143 21.589 15.9814 21.589 15.9814 21.589C15.9814 21.589 25.4814 21.589 27.8814 20.989C29.1814 20.589 30.1814 19.589 30.5814 18.289C31.1814 15.889 31.1814 10.889 31.1814 10.889C31.1814 10.889 31.2814 5.88895 30.5814 3.48895Z" fill="white"/>
</svg>
